<?xml version="1.0" encoding="UTF-8" standalone="no"?>
<!-- Created with Inkscape (http://www.inkscape.org/) -->

<svg
   xmlns:dc="http://purl.org/dc/elements/1.1/"
   xmlns:cc="http://creativecommons.org/ns#"
   xmlns:rdf="http://www.w3.org/1999/02/22-rdf-syntax-ns#"
   xmlns:svg="http://www.w3.org/2000/svg"
   xmlns="http://www.w3.org/2000/svg"
   xmlns:xlink="http://www.w3.org/1999/xlink"
   xmlns:sodipodi="http://sodipodi.sourceforge.net/DTD/sodipodi-0.dtd"
   xmlns:inkscape="http://www.inkscape.org/namespaces/inkscape"
   width="588.26001"
   height="601.95001"
   id="svg2"
   sodipodi:version="0.32"
   inkscape:version="0.48.0 r9654"
   version="1.0"
   sodipodi:docname="Palette.svg"
   inkscape:output_extension="org.inkscape.output.svg.inkscape"
   inkscape:export-filename="/home/mat/paint.png"
   inkscape:export-xdpi="12.260155"
   inkscape:export-ydpi="12.260155"
   sodipodi:modified="TRUE">
  <sodipodi:namedview
     id="base"
     pagecolor="#ffffff"
     bordercolor="#666666"
     borderopacity="1.0"
     gridtolerance="10000"
     guidetolerance="10"
     objecttolerance="10"
     inkscape:pageopacity="0.0"
     inkscape:pageshadow="2"
     inkscape:zoom="1.4"
     inkscape:cx="225.21792"
     inkscape:cy="303.81045"
     inkscape:document-units="px"
     inkscape:current-layer="layer1"
     showguides="true"
     inkscape:guide-bbox="true"
     width="588.26px"
     height="601.95px"
     inkscape:window-width="1920"
     inkscape:window-height="1031"
     inkscape:window-x="-8"
     inkscape:window-y="-8"
     showgrid="false"
     inkscape:window-maximized="1" />
  <defs
     id="defs4">
    <linearGradient
       id="linearGradient5826">
      <stop
         style="stop-color:#000000;stop-opacity:1"
         offset="0"
         id="stop5828" />
      <stop
         style="stop-color:#000000;stop-opacity:0;"
         offset="1"
         id="stop5830" />
    </linearGradient>
    <linearGradient
       id="linearGradient5816">
      <stop
         style="stop-color:#cba14a;stop-opacity:1;"
         offset="0"
         id="stop5818" />
      <stop
         style="stop-color:#cba14a;stop-opacity:0;"
         offset="1"
         id="stop5820" />
    </linearGradient>
    <linearGradient
       inkscape:collect="always"
       id="linearGradient10226">
      <stop
         style="stop-color:#006b00;stop-opacity:1;"
         offset="0"
         id="stop10228" />
      <stop
         style="stop-color:#006b00;stop-opacity:0;"
         offset="1"
         id="stop10230" />
    </linearGradient>
    <linearGradient
       inkscape:collect="always"
       id="linearGradient9233">
      <stop
         style="stop-color:#da0000;stop-opacity:1;"
         offset="0"
         id="stop9235" />
      <stop
         style="stop-color:#da0000;stop-opacity:0;"
         offset="1"
         id="stop9237" />
    </linearGradient>
    <linearGradient
       inkscape:collect="always"
       id="linearGradient8252">
      <stop
         style="stop-color:#000080;stop-opacity:1;"
         offset="0"
         id="stop8254" />
      <stop
         style="stop-color:#000080;stop-opacity:0;"
         offset="1"
         id="stop8256" />
    </linearGradient>
    <linearGradient
       inkscape:collect="always"
       id="linearGradient6300">
      <stop
         style="stop-color:#ffffff;stop-opacity:1;"
         offset="0"
         id="stop6302" />
      <stop
         style="stop-color:#ffffff;stop-opacity:0;"
         offset="1"
         id="stop6304" />
    </linearGradient>
    <linearGradient
       inkscape:collect="always"
       id="linearGradient6290">
      <stop
         style="stop-color:#4d4d4d;stop-opacity:1;"
         offset="0"
         id="stop6292" />
      <stop
         style="stop-color:#4d4d4d;stop-opacity:0;"
         offset="1"
         id="stop6294" />
    </linearGradient>
    <linearGradient
       inkscape:collect="always"
       id="linearGradient4265">
      <stop
         style="stop-color:#ffffff;stop-opacity:1;"
         offset="0"
         id="stop4267" />
      <stop
         style="stop-color:#ffffff;stop-opacity:0;"
         offset="1"
         id="stop4269" />
    </linearGradient>
    <linearGradient
       inkscape:collect="always"
       id="linearGradient4255">
      <stop
         style="stop-color:#333333;stop-opacity:1;"
         offset="0"
         id="stop4257" />
      <stop
         style="stop-color:#333333;stop-opacity:0;"
         offset="1"
         id="stop4259" />
    </linearGradient>
    <linearGradient
       inkscape:collect="always"
       id="linearGradient3234">
      <stop
         style="stop-color:#999999;stop-opacity:1;"
         offset="0"
         id="stop3236" />
      <stop
         style="stop-color:#999999;stop-opacity:0;"
         offset="1"
         id="stop3238" />
    </linearGradient>
    <linearGradient
       inkscape:collect="always"
       id="linearGradient3216">
      <stop
         style="stop-color:#ffffff;stop-opacity:1;"
         offset="0"
         id="stop3218" />
      <stop
         style="stop-color:#ffffff;stop-opacity:0;"
         offset="1"
         id="stop3220" />
    </linearGradient>
    <linearGradient
       inkscape:collect="always"
       id="linearGradient3206">
      <stop
         style="stop-color:#666666;stop-opacity:1;"
         offset="0"
         id="stop3208" />
      <stop
         style="stop-color:#666666;stop-opacity:0;"
         offset="1"
         id="stop3210" />
    </linearGradient>
    <linearGradient
       inkscape:collect="always"
       xlink:href="#linearGradient10226"
       id="linearGradient3392"
       gradientUnits="userSpaceOnUse"
       gradientTransform="translate(39.999999,74.285713)"
       x1="246.47722"
       y1="548.29608"
       x2="207.08127"
       y2="464.4534" />
    <linearGradient
       inkscape:collect="always"
       xlink:href="#linearGradient6300"
       id="linearGradient3395"
       gradientUnits="userSpaceOnUse"
       gradientTransform="translate(39.999999,74.285713)"
       x1="414.16254"
       y1="101.80864"
       x2="531.02686"
       y2="238.17921" />
    <linearGradient
       inkscape:collect="always"
       xlink:href="#linearGradient9233"
       id="linearGradient3398"
       gradientUnits="userSpaceOnUse"
       gradientTransform="translate(39.999999,74.285713)"
       x1="344.46201"
       y1="314.95084"
       x2="329.30975"
       y2="192.21768" />
    <linearGradient
       inkscape:collect="always"
       xlink:href="#linearGradient8252"
       id="linearGradient3401"
       gradientUnits="userSpaceOnUse"
       gradientTransform="translate(39.999999,74.285713)"
       x1="186.87822"
       y1="452.33157"
       x2="182.83762"
       y2="310.83228" />
    <linearGradient
       inkscape:collect="always"
       xlink:href="#linearGradient3206"
       id="linearGradient3404"
       gradientUnits="userSpaceOnUse"
       gradientTransform="translate(39.999999,74.285713)"
       x1="363.65491"
       y1="661.43317"
       x2="337.23169"
       y2="341.21478" />
    <linearGradient
       inkscape:collect="always"
       xlink:href="#linearGradient6290"
       id="linearGradient3412"
       gradientUnits="userSpaceOnUse"
       gradientTransform="translate(39.999999,74.285713)"
       x1="218.19298"
       y1="751.33673"
       x2="214.15234"
       y2="470.51434" />
    <linearGradient
       inkscape:collect="always"
       xlink:href="#linearGradient4265"
       id="linearGradient5889"
       gradientUnits="userSpaceOnUse"
       gradientTransform="matrix(-0.26672759,0.64847582,-0.60843579,-0.14428039,-104.76143,370.98323)"
       x1="268.6489"
       y1="126.42254"
       x2="356.49661"
       y2="9.0362034" />
    <linearGradient
       inkscape:collect="always"
       xlink:href="#linearGradient4255"
       id="linearGradient5892"
       gradientUnits="userSpaceOnUse"
       gradientTransform="matrix(-0.26672759,0.64847582,-0.60843579,-0.14428039,-104.76143,370.98323)"
       x1="542.60767"
       y1="77.480255"
       x2="538.43286"
       y2="-23.938507" />
    <linearGradient
       inkscape:collect="always"
       xlink:href="#linearGradient3234"
       id="linearGradient5895"
       gradientUnits="userSpaceOnUse"
       gradientTransform="matrix(0.61558145,0.21437497,-0.21437497,0.61558151,222.60799,289.90855)"
       x1="311.88458"
       y1="263.68558"
       x2="326.78433"
       y2="267.95126" />
    <linearGradient
       inkscape:collect="always"
       xlink:href="#linearGradient3216"
       id="linearGradient5898"
       gradientUnits="userSpaceOnUse"
       gradientTransform="matrix(0.61558148,0.21437496,-0.21437499,0.61558147,222.60801,289.90854)"
       x1="322.49121"
       y1="252.82645"
       x2="316.68283"
       y2="271.26172" />
    <linearGradient
       inkscape:collect="always"
       xlink:href="#linearGradient3206"
       id="linearGradient5901"
       gradientUnits="userSpaceOnUse"
       gradientTransform="matrix(0.61558148,0.21437496,-0.21437499,0.61558147,222.60801,289.90854)"
       x1="302.79321"
       y1="297.02063"
       x2="310.87445"
       y2="270.50412" />
    <linearGradient
       inkscape:collect="always"
       xlink:href="#linearGradient6290"
       id="linearGradient5919"
       gradientUnits="userSpaceOnUse"
       gradientTransform="matrix(1,0,-0.00591754,1.0044448,42.291983,73.633976)"
       x1="253.90726"
       y1="794.19385"
       x2="252.00949"
       y2="601.22864" />
    <linearGradient
       inkscape:collect="always"
       xlink:href="#linearGradient3234"
       id="linearGradient5921"
       gradientUnits="userSpaceOnUse"
       gradientTransform="matrix(0.61431288,0.21532782,-0.2180177,0.61831765,223.62402,290.21521)"
       x1="311.88458"
       y1="263.68558"
       x2="326.78433"
       y2="267.95126" />
  </defs>
  <metadata
     id="metadata7">
    <rdf:RDF>
      <cc:Work
         rdf:about="">
        <dc:format>image/svg+xml</dc:format>
        <dc:type
           rdf:resource="http://purl.org/dc/dcmitype/StillImage" />
        <dc:title></dc:title>
      </cc:Work>
    </rdf:RDF>
  </metadata>
  <g
     inkscape:label="Layer 1"
     id="layer1"
     inkscape:groupmode="layer"
     transform="translate(-94.026224,-200.16207)">
    <path
       inkscape:connector-curvature="0"
       style="fill:#cc8e4a;fill-opacity:1;fill-rule:evenodd;stroke:#000000;stroke-width:0;stroke-linecap:butt;stroke-linejoin:miter;stroke-miterlimit:4;stroke-opacity:1;stroke-dasharray:none"
       d="m 396.25977,450.76741 1.55295,-11.89134 1.66748,-8.10275 2.46871,-5.69989 3.98925,-6.615 5.64062,-6.21497 6.85054,-5.35474 6.5563,-3.03818 6.58903,-1.95571 6.3438,-1.03014 9.28685,-0.0784 7.50472,1.22106 5.59176,1.20538 6.73631,2.91534 4.98683,2.2826 5.29752,3.52193 6.81814,5.62149 3.74425,3.35459 4.25116,5.05934 4.08767,5.67638 6.197,12.18684 -1.61896,-11.37628 -15.77849,-24.86523 -25.53925,-16.3651 -33.41949,3.12695 -23.39655,15.34519 -9.51483,34.70661 3.10668,6.36403 z"
       id="path6310" />
    <path
       inkscape:connector-curvature="0"
       style="fill:#cca24a;fill-opacity:1;stroke:#000000;stroke-width:0;stroke-miterlimit:4;stroke-opacity:1;stroke-dasharray:none"
       d="m 340.86271,220.91485 c -56.59221,-4.42656 -106.5312,11.66516 -140.28584,41.58612 -48.82261,34.97755 -79.06424,107.92032 -74.07563,195.19378 7.31901,128.04298 87.71495,238.68698 179.4711,246.9746 74.66938,6.7443 133.95788,-56.38758 149.50501,-149.13027 62.73589,-19.85328 105.05296,-69.85942 104.55407,-134.26905 -0.72632,-93.77419 -91.95349,-182.76908 -203.61458,-198.64125 -5.23411,-0.74399 -10.42218,-1.31253 -15.55413,-1.71393 z m 106.24877,174.66867 c 29.49153,2.66375 54.82877,29.80865 56.5891,60.6046 1.76028,30.79594 -20.7186,53.65632 -50.21014,50.99256 -29.49155,-2.66374 -54.8608,-29.84587 -56.62112,-60.64181 -1.76031,-30.79594 20.75062,-53.61909 50.24216,-50.95535 z"
       id="path4275" />
    <path
       inkscape:connector-curvature="0"
       style="fill:#ff0000;fill-opacity:1;stroke:#000000;stroke-width:0;stroke-miterlimit:4;stroke-opacity:1;stroke-dasharray:none"
       d="m 257.97823,288.7192 c -10.8927,4.59233 -18.05561,14.65979 -20.36498,26.59497 -11.43792,15.7215 -12.6626,37.32208 -2.27707,50.05398 8.74118,10.71571 23.12904,11.97679 35.70229,4.47521 0.008,0.002 0.0156,-0.0109 0.0229,-0.01 6.6285,1.54488 13.49617,1.18452 19.93113,-1.39932 0.14157,0.0494 0.2794,0.11906 0.42124,0.16741 21.21622,7.22653 39.81126,-0.61308 41.48829,-17.49131 1.38751,-13.96419 -9.24416,-29.74593 -24.96635,-38.87874 -9.74057,-20.6946 -31.71798,-31.20223 -49.95743,-23.51255 z"
       id="path5252"
       inkscape:transform-center-x="476.792"
       inkscape:transform-center-y="10.101525" />
    <path
       inkscape:connector-curvature="0"
       inkscape:transform-center-y="10.101525"
       inkscape:transform-center-x="-413.45746"
       id="path5259"
       d="m 172.60771,406.96015 c 9.44579,-3.9823 20.36773,-1.53935 29.69692,5.48906 17.20355,3.64638 32.35802,18.34155 34.78843,34.42729 2.0454,13.53866 -5.534,24.06105 -17.90805,27.07716 -0.003,0.006 -0.0164,0.003 -0.0198,0.008 -2.84759,5.53996 -7.10861,9.8714 -12.60248,12.31673 -0.0499,0.13007 -0.084,0.27225 -0.1347,0.40178 -7.58932,19.37084 -23.71429,26.16906 -35.9772,15.16785 -10.14571,-9.10184 -14.47052,-27.54253 -11.37141,-44.61031 -8.13015,-21.37356 -2.28829,-43.60968 13.52832,-50.27792 z"
       style="fill:#0000ff;fill-opacity:1;stroke:#000000;stroke-width:0;stroke-miterlimit:4;stroke-opacity:1;stroke-dasharray:none" />
    <path
       inkscape:connector-curvature="0"
       style="fill:#008000;fill-opacity:1;stroke:#000000;stroke-width:0;stroke-miterlimit:4;stroke-opacity:1;stroke-dasharray:none"
       d="m 281.26906,616.16196 c 5.61596,13.3207 14.93398,23.34227 24.87361,28.12932 14.59634,15.93922 32.05613,21.21254 40.35833,11.57606 6.98744,-8.11077 5.41748,-24.39363 -2.82144,-40.16358 -2.6e-4,-0.009 -0.0117,-0.0197 -0.0118,-0.028 0.0461,-7.32892 -1.47138,-15.27343 -4.68599,-23.11964 0.014,-0.15357 0.045,-0.29926 0.0582,-0.45336 1.9686,-23.0495 -7.61846,-45.7894 -21.39014,-50.73607 -11.39399,-4.09265 -22.08633,5.28009 -26.56024,21.68433 -14.77313,7.47054 -19.22421,30.80588 -9.8205,53.11091 z"
       id="path5261"
       inkscape:transform-center-x="-8.927057"
       inkscape:transform-center-y="476.792" />
    <path
       inkscape:connector-curvature="0"
       inkscape:transform-center-y="-8.2559305"
       inkscape:transform-center-x="476.792"
       id="path5263"
       d="m 339.67929,482.50903 c -10.89271,4.59233 -22.64033,3.78511 -32.0806,-1.19375 -18.52832,-1.09649 -33.46908,-12.02957 -34.21448,-25.69957 -0.62718,-11.50545 8.99422,-21.55008 22.99915,-25.65585 0.004,-0.006 0.0187,-0.004 0.0229,-0.01 3.80555,-5.151 9.02409,-9.42297 15.37506,-12.20605 0.0706,-0.11887 0.12532,-0.24641 0.19681,-0.36494 10.69626,-17.72616 29.2913,-25.56575 41.48828,-17.4913 10.09119,6.68038 12.642,22.16666 7.17306,37.35391 6.3935,17.57442 -2.72071,37.5775 -20.96015,45.26718 z"
       style="fill:#ffffff;fill-opacity:1;stroke:#000000;stroke-width:0;stroke-miterlimit:4;stroke-opacity:1;stroke-dasharray:none" />
    <path
       inkscape:connector-curvature="0"
       style="fill:#1a1a1a;fill-opacity:1;stroke:#000000;stroke-width:0;stroke-miterlimit:4;stroke-opacity:1;stroke-dasharray:none"
       d="m 398.2226,264.48624 c 9.0117,-3.7993 19.12865,-2.18753 27.55769,3.39972 15.94422,2.36697 29.4955,14.23605 31.07837,27.83717 1.33207,11.44746 -6.21414,20.73889 -17.92489,23.84089 -0.003,0.006 -0.0157,0.002 -0.0189,0.008 -2.90336,4.84271 -7.07759,8.7165 -12.32453,11.03629 -0.0523,0.11298 -0.0903,0.23557 -0.14335,0.34813 -7.93603,16.83104 -23.31997,23.31685 -34.32387,14.47081 -9.10408,-7.31876 -12.35867,-22.8449 -8.72413,-37.52056 -6.68992,-17.86141 -0.26613,-37.05863 14.82362,-43.42041 z"
       id="path5265"
       inkscape:transform-center-x="-394.4571"
       inkscape:transform-center-y="8.4237112" />
    <path
       inkscape:connector-curvature="0"
       style="fill:url(#linearGradient3404);fill-opacity:1;stroke:#000000;stroke-width:0;stroke-miterlimit:4;stroke-opacity:1;stroke-dasharray:none"
       d="m 339.67929,482.50903 c -10.89271,4.59233 -22.64033,3.78511 -32.0806,-1.19375 -18.52832,-1.09649 -33.46908,-12.02957 -34.21448,-25.69957 -0.62718,-11.50545 8.99422,-21.55008 22.99915,-25.65585 0.004,-0.006 0.0187,-0.004 0.0229,-0.01 3.80555,-5.151 9.02409,-9.42297 15.37506,-12.20605 0.0706,-0.11887 0.12532,-0.24641 0.19681,-0.36494 10.69626,-17.72616 29.2913,-25.56575 41.48828,-17.4913 10.09119,6.68038 12.642,22.16666 7.17306,37.35391 6.3935,17.57442 -2.72071,37.5775 -20.96015,45.26718 z"
       id="path9251"
       inkscape:transform-center-x="476.792"
       inkscape:transform-center-y="-8.2559305" />
    <path
       inkscape:connector-curvature="0"
       style="fill:url(#linearGradient3401);fill-opacity:1;stroke:#000000;stroke-width:0;stroke-miterlimit:4;stroke-opacity:1;stroke-dasharray:none"
       d="m 172.60771,406.96015 c 9.44579,-3.9823 20.36773,-1.53935 29.69692,5.48906 17.20355,3.64638 32.35802,18.34155 34.78843,34.42729 2.0454,13.53866 -5.534,24.06105 -17.90805,27.07716 -0.003,0.006 -0.0164,0.003 -0.0198,0.008 -2.84759,5.53996 -7.10861,9.8714 -12.60248,12.31673 -0.0499,0.13007 -0.084,0.27225 -0.1347,0.40178 -7.58932,19.37084 -23.71429,26.16906 -35.9772,15.16785 -10.14571,-9.10184 -14.47052,-27.54253 -11.37141,-44.61031 -8.13015,-21.37356 -2.28829,-43.60968 13.52832,-50.27792 z"
       id="path7281"
       inkscape:transform-center-x="-413.45746"
       inkscape:transform-center-y="10.101525" />
    <path
       inkscape:connector-curvature="0"
       inkscape:transform-center-y="10.101525"
       inkscape:transform-center-x="476.792"
       id="path8260"
       d="m 257.97823,288.7192 c -10.8927,4.59233 -18.05561,14.65979 -20.36498,26.59497 -11.43792,15.7215 -12.6626,37.32208 -2.27707,50.05398 8.74118,10.71571 23.12904,11.97679 35.70229,4.47521 0.008,0.002 0.0156,-0.0109 0.0229,-0.01 6.6285,1.54488 13.49617,1.18452 19.93113,-1.39932 0.14157,0.0494 0.2794,0.11906 0.42124,0.16741 21.21622,7.22653 39.81126,-0.61308 41.48829,-17.49131 1.38751,-13.96419 -9.24416,-29.74593 -24.96635,-38.87874 -9.74057,-20.6946 -31.71798,-31.20223 -49.95743,-23.51255 z"
       style="fill:url(#linearGradient3398);fill-opacity:1;stroke:#000000;stroke-width:0;stroke-miterlimit:4;stroke-opacity:1;stroke-dasharray:none" />
    <path
       inkscape:connector-curvature="0"
       inkscape:transform-center-y="8.4237112"
       inkscape:transform-center-x="-394.4571"
       id="path9241"
       d="m 398.2226,264.48624 c 9.0117,-3.7993 19.12865,-2.18753 27.55769,3.39972 15.94422,2.36697 29.4955,14.23605 31.07837,27.83717 1.33207,11.44746 -6.21414,20.73889 -17.92489,23.84089 -0.003,0.006 -0.0157,0.002 -0.0189,0.008 -2.90336,4.84271 -7.07759,8.7165 -12.32453,11.03629 -0.0523,0.11298 -0.0903,0.23557 -0.14335,0.34813 -7.93603,16.83104 -23.31997,23.31685 -34.32387,14.47081 -9.10408,-7.31876 -12.35867,-22.8449 -8.72413,-37.52056 -6.68992,-17.86141 -0.26613,-37.05863 14.82362,-43.42041 z"
       style="fill:url(#linearGradient3395);fill-opacity:1;stroke:#000000;stroke-width:0;stroke-miterlimit:4;stroke-opacity:1;stroke-dasharray:none" />
    <path
       inkscape:connector-curvature="0"
       inkscape:transform-center-y="476.792"
       inkscape:transform-center-x="-8.927057"
       id="path9255"
       d="m 281.26906,616.16196 c 5.61596,13.3207 14.93398,23.34227 24.87361,28.12932 14.59634,15.93922 32.05613,21.21254 40.35833,11.57606 6.98744,-8.11077 5.41748,-24.39363 -2.82144,-40.16358 -2.6e-4,-0.009 -0.0117,-0.0197 -0.0118,-0.028 0.0461,-7.32892 -1.47138,-15.27343 -4.68599,-23.11964 0.014,-0.15357 0.045,-0.29926 0.0582,-0.45336 1.9686,-23.0495 -7.61846,-45.7894 -21.39014,-50.73607 -11.39399,-4.09265 -22.08633,5.28009 -26.56024,21.68433 -14.77313,7.47054 -19.22421,30.80588 -9.8205,53.11091 z"
       style="fill:url(#linearGradient3392);fill-opacity:1;stroke:#000000;stroke-width:0;stroke-miterlimit:4;stroke-opacity:1;stroke-dasharray:none" />
    <rect
       transform="matrix(0.40651747,-0.91364301,0.9273381,-0.3742246,0,0)"
       rx="14.566913"
       style="fill:#008eff;fill-opacity:1;stroke:#000000;stroke-width:0;stroke-miterlimit:4;stroke-opacity:1;stroke-dasharray:none"
       ry="36.029125"
       y="548.89374"
       x="-921.07587"
       height="101.45379"
       width="85.029442"
       id="rect2180" />
    <path
       inkscape:connector-curvature="0"
       style="fill:#b3b3b3;fill-opacity:1;stroke:#000000;stroke-width:0;stroke-miterlimit:4;stroke-opacity:1;stroke-dasharray:none"
       id="path2189"
       sodipodi:nodetypes="csssssscscsssssssccc"
       d="m 252.377,515.79851 c -0.4842,0.68786 -0.95172,1.36715 -1.40206,2.0372 -0.46733,0.69532 -0.91618,1.38069 -1.34601,2.05535 -0.44823,0.70358 -0.87578,1.39551 -1.28202,2.07495 -0.42603,0.71254 -0.82864,1.41134 -1.20711,2.09543 -0.39942,0.72195 -0.77197,1.42751 -1.11682,2.11552 -0.36716,0.73255 -0.70292,1.44521 -1.00627,2.1366 -0.32632,0.74372 -1.24712,2.45675 -1.49721,3.1495 -1.41545,3.50154 0.65025,4.74121 2.37534,6.48928 1.54744,1.56804 2.46007,3.86319 6.33747,3.27902 0.84306,-0.16062 1.73427,-0.37815 2.66994,-0.65027 0.84391,-0.24543 1.72396,-0.53529 2.63747,-0.86787 0.83773,-0.30499 1.7036,-0.64591 2.59549,-1.02148 0.8293,-0.3492 1.68109,-0.72833 2.55371,-1.13637 0.81947,-0.38319 1.65731,-0.79186 2.51212,-1.22514 0.8101,-0.41063 1.63545,-0.84337 2.47485,-1.29747 0.80109,-0.43338 1.61498,-0.88623 2.44063,-1.3579 0.79247,-0.45271 1.59579,-0.92277 2.40903,-1.4096 -8.29981,-4.16588 -14.44629,-9.97753 -20.14855,-16.46675 0,0 0,0 0,0" />
    <path
       inkscape:connector-curvature="0"
       d="m 252.377,515.79851 c -0.4842,0.68786 -0.95172,1.36715 -1.40206,2.0372 -0.46733,0.69532 -0.91618,1.38069 -1.34601,2.05535 -0.44823,0.70358 -0.87578,1.39551 -1.28202,2.07495 -0.42603,0.71254 -0.82864,1.41134 -1.20711,2.09543 -0.39942,0.72195 -0.77197,1.42751 -1.11682,2.11552 -0.36716,0.73255 -0.70292,1.44521 -1.00627,2.1366 -0.32632,0.74372 -1.24712,2.45675 -1.49721,3.1495 -1.41545,3.50154 0.65025,4.74121 2.37534,6.48928 1.54744,1.56804 2.46007,3.86319 6.33747,3.27902 0.84306,-0.16062 1.73427,-0.37815 2.66994,-0.65027 0.84391,-0.24543 1.72396,-0.53529 2.63747,-0.86787 0.83773,-0.30499 1.7036,-0.64591 2.59549,-1.02148 0.8293,-0.3492 1.68109,-0.72833 2.55371,-1.13637 0.81947,-0.38319 1.65731,-0.79186 2.51212,-1.22514 0.8101,-0.41063 1.63545,-0.84337 2.47485,-1.29747 0.80109,-0.43338 1.61498,-0.88623 2.44063,-1.3579 0.79247,-0.45271 1.59579,-0.92277 2.40903,-1.4096 -8.29981,-4.16588 -14.44629,-9.97753 -20.14855,-16.46675 0,0 0,0 0,0"
       sodipodi:nodetypes="csssssscscsssssssccc"
       id="path3204"
       style="fill:url(#linearGradient5901);fill-opacity:1;stroke:#000000;stroke-width:0;stroke-miterlimit:4;stroke-opacity:1;stroke-dasharray:none" />
    <path
       inkscape:connector-curvature="0"
       style="fill:url(#linearGradient5898);fill-opacity:1;stroke:#000000;stroke-width:0;stroke-miterlimit:4;stroke-opacity:1;stroke-dasharray:none"
       id="path3214"
       sodipodi:nodetypes="csssssscscsssssssccc"
       d="m 252.377,515.79851 c -0.4842,0.68786 -0.95172,1.36715 -1.40206,2.0372 -0.46733,0.69532 -0.91618,1.38069 -1.34601,2.05535 -0.44823,0.70358 -0.87578,1.39551 -1.28202,2.07495 -0.42603,0.71254 -0.82864,1.41134 -1.20711,2.09543 -0.39942,0.72195 -0.77197,1.42751 -1.11682,2.11552 -0.36716,0.73255 -0.70292,1.44521 -1.00627,2.1366 -0.32632,0.74372 -1.24712,2.45675 -1.49721,3.1495 -1.41545,3.50154 0.65025,4.74121 2.37534,6.48928 1.54744,1.56804 2.46007,3.86319 6.33747,3.27902 0.84306,-0.16062 1.73427,-0.37815 2.66994,-0.65027 0.84391,-0.24543 1.72396,-0.53529 2.63747,-0.86787 0.83773,-0.30499 1.7036,-0.64591 2.59549,-1.02148 0.8293,-0.3492 1.68109,-0.72833 2.55371,-1.13637 0.81947,-0.38319 1.65731,-0.79186 2.51212,-1.22514 0.8101,-0.41063 1.63545,-0.84337 2.47485,-1.29747 0.80109,-0.43338 1.61498,-0.88623 2.44063,-1.3579 0.79247,-0.45271 1.59579,-0.92277 2.40903,-1.4096 -8.29981,-4.16588 -14.44629,-9.97753 -20.14855,-16.46675 0,0 0,0 0,0" />
    <g
       id="g5912"
       inkscape:export-filename="D:\sasha\SQLauncher\App\Web\SqLauncher.Web.Designer\Image\Palette.png"
       inkscape:export-xdpi="12"
       inkscape:export-ydpi="12"
       transform="matrix(1,0,0.00589135,0.99557488,-2.7257886,0.97757679)">
      <path
         style="fill:url(#linearGradient5919);fill-opacity:1;stroke:#000000;stroke-width:0;stroke-miterlimit:4;stroke-opacity:1;stroke-dasharray:none"
         d="m 340.86271,220.91485 c -56.59221,-4.42656 -106.5312,11.66516 -140.28584,41.58612 -48.82261,34.97755 -79.06424,107.92032 -74.07563,195.19378 7.31901,128.04298 87.71495,238.68698 179.4711,246.9746 74.66938,6.7443 133.95788,-56.38758 149.50501,-149.13027 62.73589,-19.85328 105.05296,-69.85942 104.55407,-134.26905 -0.72632,-93.77419 -91.95349,-182.76908 -203.61458,-198.64125 -5.23411,-0.74399 -10.42218,-1.31253 -15.55413,-1.71393 z m 106.24877,174.66867 c 29.49153,2.66375 54.82877,29.80865 56.5891,60.6046 1.76028,30.79594 -20.7186,53.65632 -50.21014,50.99256 -29.49155,-2.66374 -54.8608,-29.84587 -56.62112,-60.64181 -1.76031,-30.79594 20.75062,-53.61909 50.24216,-50.95535 z"
         id="path5319"
         inkscape:connector-curvature="0" />
      <g
         id="g5907">
        <rect
           transform="matrix(0.73462965,-0.67846834,0.80749973,0.58986793,0,0)"
           rx="52.815998"
           style="fill:#a05a2c;fill-opacity:1;stroke:#000000;stroke-width:0;stroke-miterlimit:4;stroke-opacity:1;stroke-dasharray:none"
           ry="13.164707"
           y="556.77661"
           x="-297.00562"
           height="34.489479"
           width="451.04706"
           id="rect2162" />
        <path
           style="fill:#333333;fill-opacity:1;stroke:#000000;stroke-width:0;stroke-miterlimit:4;stroke-opacity:1"
           d="m 111.59228,627.50028 18.39178,-14.00851 c 2.86944,-2.18557 24.41024,-48.01353 54.71255,-60.67915 l 45.11675,-18.85768 c 18.41617,-7.6975 30.28219,-6.45063 26.39552,2.28462 l -20.53464,46.15136 c -3.88668,8.73525 -20.56345,33.61861 -39.71255,39.25058 l -30.11674,8.85767 c -19.1491,5.63197 -61.85857,2.79431 -54.25267,-2.99889 z"
           id="rect3264"
           inkscape:connector-curvature="0"
           sodipodi:nodetypes="sssssssss" />
        <path
           inkscape:connector-curvature="0"
           d="m 252.2834,507.94136 c -0.65811,0.99556 -1.29353,1.9787 -1.90562,2.94847 -0.63518,1.00636 -1.24523,1.9983 -1.82944,2.97474 -0.60922,1.01831 -1.19032,2.01975 -1.74247,3.00311 -0.57904,1.03127 -1.12624,2.04265 -1.64064,3.03275 -0.54288,1.04489 -1.04923,2.06605 -1.51794,3.06182 -0.49902,1.06023 -0.95537,2.09167 -1.36767,3.09233 -0.44351,1.0764 -1.69503,3.55569 -2.03494,4.55833 -1.92382,5.06782 0.88379,6.86202 3.22846,9.39203 2.10321,2.26944 3.34361,5.59124 8.6136,4.74577 1.14585,-0.23248 2.35713,-0.54731 3.62887,-0.94115 1.147,-0.35522 2.34313,-0.77473 3.58473,-1.25608 1.13861,-0.44142 2.31546,-0.93484 3.52767,-1.47841 1.12715,-0.5054 2.28486,-1.05412 3.47089,-1.64468 1.11378,-0.5546 2.25255,-1.14608 3.41437,-1.77316 1.10105,-0.59431 2.22282,-1.22063 3.36369,-1.87785 1.08881,-0.62724 2.19501,-1.28266 3.3172,-1.96531 1.0771,-0.65521 2.16894,-1.33554 3.27425,-2.04013 -11.28073,-6.02934 -19.63475,-14.44063 -27.38501,-23.83258 0,0 0,0 0,0"
           sodipodi:nodetypes="csssssscscsssssssccc"
           id="path3224"
           style="fill:url(#linearGradient5921);fill-opacity:1;stroke:#000000;stroke-width:0;stroke-miterlimit:4;stroke-opacity:1;stroke-dasharray:none" />
      </g>
    </g>
  </g>
</svg>
